<svg width="48" height="48" viewBox="0 0 48 48" fill="none" xmlns="http://www.w3.org/2000/svg">
<path d="M17.7001 44.1916C15.8094 44.1916 14.0189 43.8459 12.3286 43.1546C10.6379 42.4633 9.13459 41.4556 7.81859 40.1316C6.52793 38.8489 5.53693 37.3706 4.84559 35.6966C4.15426 34.0229 3.80859 32.2241 3.80859 30.3001C3.80859 27.5934 4.50426 25.1283 5.89559 22.9046C7.28693 20.6806 9.13659 19.0353 11.4446 17.9686C12.1033 16.5766 12.9906 15.3226 14.1066 14.2066C15.2226 13.0906 16.5139 12.1659 17.9806 11.4326C19.0553 9.07393 20.7021 7.2136 22.9211 5.8516C25.1404 4.4896 27.6168 3.80859 30.3501 3.80859C32.2408 3.80859 34.0229 4.15426 35.6966 4.84559C37.3706 5.53693 38.8489 6.54459 40.1316 7.86859C41.4143 9.18459 42.4116 10.6731 43.1236 12.3341C43.8356 13.9954 44.1916 15.7714 44.1916 17.6621C44.1916 20.4301 43.5598 22.8678 42.2961 24.9751C41.0328 27.0824 39.1233 28.7639 36.5676 30.0196C35.9249 31.4306 35.0419 32.7076 33.9186 33.8506C32.7953 34.9936 31.4996 35.8953 30.0316 36.5556C28.9569 38.9223 27.3219 40.7866 25.1266 42.1486C22.9313 43.5106 20.4558 44.1916 17.7001 44.1916ZM17.7241 40.9166C19.1604 40.9246 20.5483 40.6154 21.8876 39.9891C23.2269 39.3631 24.3021 38.5328 25.1131 37.4981C23.0451 37.7074 21.0686 37.4911 19.1836 36.8491C17.2989 36.2071 15.6353 35.1853 14.1926 33.7836C12.7499 32.3743 11.7158 30.7249 11.0901 28.8356C10.4648 26.9459 10.2569 24.9671 10.4666 22.8991C9.41426 23.7338 8.58743 24.8169 7.98609 26.1486C7.38443 27.4799 7.08359 28.8638 7.08359 30.3001C7.08359 31.7841 7.34626 33.1701 7.87159 34.4581C8.39726 35.7461 9.16009 36.8734 10.1601 37.8401C11.1521 38.7991 12.2878 39.5496 13.5671 40.0916C14.8464 40.6336 16.2321 40.9086 17.7241 40.9166ZM24.0241 34.5666C25.4524 34.5666 26.8219 34.2658 28.1326 33.6641C29.4436 33.0628 30.5458 32.2359 31.4391 31.1836C29.3791 31.3933 27.4131 31.1604 25.5411 30.4851C23.6688 29.8094 22.0279 28.7503 20.6186 27.3076C19.1759 25.8316 18.1253 24.1533 17.4666 22.2726C16.8079 20.3916 16.6039 18.4171 16.8546 16.3491C15.5769 17.5838 14.6874 18.7649 14.1861 19.8926C13.6844 21.0199 13.4336 22.3891 13.4336 24.0001C13.4336 25.4588 13.6983 26.8321 14.2276 28.1201C14.7569 29.4081 15.5178 30.5481 16.5101 31.5401C17.4768 32.5068 18.6061 33.2529 19.8981 33.7786C21.1901 34.3039 22.5654 34.5666 24.0241 34.5666ZM30.5501 28.1166C31.1168 28.1166 31.6818 28.0603 32.2451 27.9476C32.8084 27.8349 33.4274 27.6453 34.1021 27.3786C34.7704 25.4436 34.8733 23.5298 34.4106 21.6371C33.9479 19.7444 32.9706 18.0559 31.4786 16.5716C30.1023 15.1876 28.3678 14.2476 26.2751 13.7516C24.1824 13.2556 22.2479 13.3044 20.4716 13.8981C20.3049 14.4728 20.1819 15.0521 20.1026 15.6361C20.0233 16.2201 19.9836 16.8914 19.9836 17.6501C19.9836 19.0421 20.2463 20.3841 20.7716 21.6761C21.2973 22.9681 22.0601 24.1228 23.0601 25.1401C24.0521 26.1991 25.1921 26.9599 26.4801 27.4226C27.7681 27.8853 29.1248 28.1166 30.5501 28.1166ZM37.8076 25.1651C38.8773 24.2544 39.6628 23.1936 40.1641 21.9826C40.6658 20.7719 40.9166 19.3278 40.9166 17.6501C40.9166 16.2248 40.6539 14.8764 40.1286 13.6051C39.6029 12.3338 38.8441 11.1981 37.8521 10.1981C36.8268 9.18043 35.6784 8.40693 34.4071 7.87759C33.1358 7.34826 31.7914 7.08359 30.3741 7.08359C28.8044 7.08359 27.3769 7.34476 26.0916 7.8671C24.8059 8.3891 23.6538 9.2016 22.6351 10.3046C24.6871 10.1029 26.6784 10.3418 28.6091 11.0211C30.5401 11.7004 32.2603 12.7783 33.7696 14.2546C35.2789 15.7306 36.3796 17.4049 37.0716 19.2776C37.7639 21.1506 38.0093 23.1131 37.8076 25.1651Z" fill="#0D0904"/>
</svg>
