<svg width="48" height="48" viewBox="0 0 48 48" fill="none" xmlns="http://www.w3.org/2000/svg">
<path d="M22.0716 22.9268L15.9716 39.7033L15.7981 40.0008L14.5001 41.2368C14.2348 41.4942 13.9444 41.5598 13.6291 41.4338C13.3138 41.3082 13.1236 41.0725 13.0586 40.7268L12.8086 39.0553C12.8086 39.0807 12.8253 38.948 12.8586 38.6573L19.1706 21.3073C19.5693 21.722 20.0174 22.0558 20.5151 22.3088C21.0131 22.5622 21.5319 22.7682 22.0716 22.9268ZM24.0001 22.2033C22.2818 22.2033 20.8183 21.599 19.6096 20.3903C18.4009 19.1817 17.7966 17.7182 17.7966 15.9998C17.7966 14.5522 18.2149 13.2726 19.0516 12.1613C19.8883 11.05 20.9939 10.3348 22.3686 10.0158V7.36832C22.3686 6.90065 22.5234 6.51182 22.8331 6.20182C23.1424 5.89182 23.5306 5.73682 23.9976 5.73682C24.4646 5.73682 24.8536 5.89182 25.1646 6.20182C25.4759 6.51182 25.6316 6.90065 25.6316 7.36832V10.0158C27.0063 10.3348 28.1119 11.05 28.9486 12.1613C29.7853 13.2726 30.2036 14.5522 30.2036 15.9998C30.2036 17.7182 29.5993 19.1817 28.3906 20.3903C27.1819 21.599 25.7184 22.2033 24.0001 22.2033ZM24.0016 18.9283C24.8099 18.9283 25.4998 18.6422 26.0711 18.0698C26.6428 17.4975 26.9286 16.807 26.9286 15.9983C26.9286 15.19 26.6424 14.5002 26.0701 13.9288C25.4978 13.3572 24.8073 13.0713 23.9986 13.0713C23.1903 13.0713 22.5004 13.3575 21.9291 13.9298C21.3574 14.5021 21.0716 15.1927 21.0716 16.0013C21.0716 16.8097 21.3578 17.4995 21.9301 18.0708C22.5024 18.6425 23.1929 18.9283 24.0016 18.9283ZM25.8286 22.9768C26.3683 22.8182 26.8954 22.6122 27.4101 22.3588C27.9244 22.1058 28.3809 21.772 28.7796 21.3573L35.1416 38.6573C35.2083 38.7907 35.2083 38.9233 35.1416 39.0553L34.9416 40.7268C34.8766 41.0725 34.6864 41.3082 34.3711 41.4338C34.0558 41.5598 33.7654 41.4942 33.5001 41.2368L32.2021 40.0008C32.0864 39.8848 32.0286 39.7857 32.0286 39.7033L25.8286 22.9768Z" fill="white"/>
</svg>
