<svg width="80" height="80" viewBox="0 0 80 80" fill="none" xmlns="http://www.w3.org/2000/svg">
<path d="M29.2808 49.5057C23.7541 49.5057 19.0599 47.5782 15.1983 43.7232C11.3366 39.8688 9.40576 35.199 9.40576 29.714C9.40576 28.6029 9.49576 27.5613 9.67576 26.589C9.85576 25.6168 10.1547 24.5896 10.5724 23.5074C10.7524 23.0496 11.021 22.6876 11.3783 22.4215C11.7355 22.156 12.131 21.9779 12.5649 21.8874C12.9666 21.7763 13.3819 21.7821 13.8108 21.9049C14.2402 22.0276 14.6358 22.2649 14.9974 22.6165L24.2916 31.9107L31.9583 24.744L22.2474 15.0332C21.8958 14.6715 21.6585 14.2774 21.5358 13.8507C21.413 13.424 21.4072 13.0088 21.5183 12.6049C21.6088 12.1971 21.7838 11.8212 22.0433 11.4774C22.3033 11.1329 22.6705 10.8735 23.1449 10.699C24.2088 10.2763 25.2197 9.95764 26.1774 9.74319C27.1352 9.52931 28.1655 9.42236 29.2683 9.42236C34.9027 9.42236 39.6919 11.3951 43.6358 15.3407C47.5802 19.2863 49.5524 24.0774 49.5524 29.714C49.5524 31.0235 49.4235 32.3063 49.1658 33.5624C48.908 34.819 48.5635 36.0863 48.1324 37.364L66.8083 56.0199C68.401 57.5704 69.1802 59.4471 69.1458 61.6499C69.1113 63.8532 68.278 65.7168 66.6458 67.2407C65.1119 68.6674 63.2941 69.3668 61.1924 69.339C59.0908 69.3113 57.2777 68.5351 55.7533 67.0107L36.9108 48.0849C35.6597 48.516 34.4163 48.8604 33.1808 49.1182C31.9452 49.3765 30.6452 49.5057 29.2808 49.5057ZM29.2808 44.0474C30.6697 44.0474 32.1419 43.8251 33.6974 43.3807C35.253 42.9363 36.6141 42.2696 37.7808 41.3807L59.6558 63.2557C60.1002 63.7129 60.6558 63.9415 61.3224 63.9415C61.9891 63.9415 62.5447 63.716 62.9891 63.2649C63.4335 62.8143 63.6558 62.2588 63.6558 61.5982C63.6558 60.9382 63.4335 60.3796 62.9891 59.9224L41.4474 38.3807C42.3363 37.214 43.003 35.839 43.4474 34.2557C43.8919 32.6724 44.1141 31.1585 44.1141 29.714C44.1141 25.5474 42.5724 22.0196 39.4891 19.1307C36.4058 16.2418 32.8919 14.7696 28.9474 14.714L37.1883 23.1215C37.7549 23.6976 38.0244 24.3835 37.9966 25.179C37.9688 25.9751 37.6716 26.6562 37.1049 27.2224L26.5399 37.1215C25.9399 37.6454 25.2483 37.9074 24.4649 37.9074C23.6816 37.9074 23.0338 37.6454 22.5216 37.1215L14.6141 29.2974C14.7808 33.5751 16.2994 37.1029 19.1699 39.8807C22.0405 42.6585 25.4108 44.0474 29.2808 44.0474Z" fill="white"/>
</svg>
