<svg width="48" height="48" viewBox="0 0 48 48" fill="none" xmlns="http://www.w3.org/2000/svg">
<path d="M7.10755 40.2994C6.18755 40.2994 5.38988 39.9616 4.71455 39.286C4.03888 38.6106 3.70105 37.8129 3.70105 36.8929V11.108C3.70105 10.1846 4.03888 9.38412 4.71455 8.70645C5.38988 8.02845 6.18755 7.68945 7.10755 7.68945H40.8925C41.8159 7.68945 42.6164 8.02845 43.294 8.70645C43.972 9.38412 44.311 10.1846 44.311 11.108V36.8929C44.311 37.8129 43.972 38.6106 43.294 39.286C42.6164 39.9616 41.8159 40.2994 40.8925 40.2994H7.10755ZM7.10755 36.8929H40.8925V11.108H7.10755V36.8929ZM14.4501 34.1929H33.6C34.3224 34.1929 34.9362 33.9356 35.4415 33.421C35.9472 32.9063 36.2001 32.2813 36.2001 31.5459C36.2001 30.8106 35.9472 30.193 35.4415 29.693C34.9362 29.193 34.3224 28.943 33.6 28.943H14.4001C13.6777 28.943 13.0639 29.1968 12.5585 29.7045C12.0529 30.2125 11.8001 30.8291 11.8001 31.5544C11.8001 32.2801 12.0577 32.9013 12.5731 33.4179C13.0884 33.9346 13.7141 34.1929 14.4501 34.1929Z" fill="white"/>
</svg>
