<svg width="48" height="48" viewBox="0 0 48 48" fill="none" xmlns="http://www.w3.org/2000/svg">
<path d="M8.46791 23.8881L17.1244 32.5446C17.4641 32.8926 17.6236 33.2924 17.6029 33.7441C17.5822 34.1957 17.4001 34.5956 17.0564 34.9436C16.7124 35.2912 16.3062 35.4631 15.8379 35.4591C15.3696 35.4554 14.9654 35.2836 14.6254 34.9436L4.77541 25.1056C4.59341 24.9216 4.46091 24.7302 4.37791 24.5316C4.29524 24.3326 4.25391 24.1216 4.25391 23.8986C4.25391 23.6756 4.29524 23.4651 4.37791 23.2671C4.46091 23.0687 4.59341 22.8779 4.77541 22.6946L14.7754 12.6946C15.1184 12.3549 15.5254 12.1851 15.9964 12.1851C16.4671 12.1851 16.8724 12.3549 17.2124 12.6946C17.5521 13.0346 17.7219 13.4419 17.7219 13.9166C17.7219 14.3916 17.5521 14.8006 17.2124 15.1436L8.46791 23.8881ZM39.5449 23.9121L30.8884 15.2556C30.5407 14.9076 30.3772 14.5077 30.3979 14.0561C30.4186 13.6044 30.6007 13.2046 30.9444 12.8566C31.2884 12.5089 31.6946 12.3371 32.1629 12.3411C32.6312 12.3447 33.0354 12.5166 33.3754 12.8566L43.2254 22.6946C43.4074 22.8786 43.5399 23.0699 43.6229 23.2686C43.7056 23.4676 43.7469 23.6786 43.7469 23.9016C43.7469 24.1246 43.7056 24.3351 43.6229 24.5331C43.5399 24.7314 43.4074 24.9222 43.2254 25.1056L33.2254 35.1056C32.8847 35.4452 32.4867 35.6087 32.0314 35.5961C31.5761 35.5834 31.1784 35.4032 30.8384 35.0556C30.4907 34.7146 30.3169 34.3081 30.3169 33.8361C30.3169 33.3644 30.4907 32.9586 30.8384 32.6186L39.5449 23.9121Z" fill="white"/>
</svg>
