<svg width="48" height="48" viewBox="0 0 48 48" fill="none" xmlns="http://www.w3.org/2000/svg">
<path d="M1.7251 31.9065V31.0535C1.7251 29.1895 2.65143 27.9646 4.5041 27.379C6.35643 26.793 7.99793 26.5 9.4286 26.5C10.8589 26.5 12.5003 26.7921 14.3526 27.3765C16.2053 27.9611 17.1316 29.1868 17.1316 31.0535V31.9065H1.7251ZM9.4261 23.8215C8.33843 23.8215 7.4081 23.4335 6.6351 22.6575C5.86176 21.8811 5.4751 20.948 5.4751 19.858C5.4751 18.768 5.86243 17.8363 6.6371 17.063C7.41176 16.29 8.34293 15.9035 9.4306 15.9035C10.5183 15.9035 11.4486 16.2913 12.2216 17.067C12.9949 17.843 13.3816 18.7748 13.3816 19.8625C13.3816 20.9501 12.9943 21.882 12.2196 22.658C11.4449 23.4336 10.5138 23.8215 9.4261 23.8215ZM19.8666 26.8195C19.4839 26.8195 19.1679 26.6996 18.9186 26.46C18.6693 26.2203 18.5446 25.9125 18.5446 25.5365C18.5446 25.3488 18.6693 25.024 18.9186 24.562C19.1773 24.1953 19.3816 23.812 19.5316 23.412C19.6816 23.012 19.7566 22.595 19.7566 22.161C19.7566 21.727 19.6816 21.298 19.5316 20.874C19.3816 20.45 19.1759 20.0753 18.9146 19.75C18.8066 19.6043 18.7179 19.4528 18.6486 19.2955C18.5793 19.1381 18.5446 18.9715 18.5446 18.7955C18.5446 18.4145 18.6696 18.1 18.9196 17.852C19.1696 17.6043 19.4853 17.4805 19.8666 17.4805C20.0349 17.4805 20.2079 17.5075 20.3856 17.5615C20.5633 17.6155 20.7021 17.7091 20.8021 17.8425C21.3848 18.4505 21.8114 19.1271 22.0821 19.8725C22.3528 20.6178 22.4881 21.381 22.4881 22.162C22.4881 22.9366 22.3424 23.7145 22.0511 24.4955C21.7598 25.2768 21.3316 25.9468 20.7666 26.5055C20.6333 26.6388 20.4943 26.7245 20.3496 26.7625C20.2053 26.8005 20.0443 26.8195 19.8666 26.8195ZM23.6746 30.623C23.2853 30.623 22.9688 30.4973 22.7251 30.246C22.4818 29.995 22.3601 29.6773 22.3601 29.293C22.3601 29.1156 22.3924 28.9506 22.4571 28.798C22.5218 28.645 22.6083 28.4968 22.7166 28.3535C23.5359 27.3945 24.1433 26.3921 24.5386 25.3465C24.9339 24.3008 25.1316 23.2383 25.1316 22.159C25.1316 21.0796 24.9339 20.0078 24.5386 18.9435C24.1433 17.8788 23.5353 16.8798 22.7146 15.9465C22.6076 15.8045 22.5218 15.659 22.4571 15.51C22.3924 15.3606 22.3601 15.193 22.3601 15.007C22.3601 14.6196 22.4849 14.3031 22.7346 14.0575C22.9846 13.8118 23.3008 13.689 23.6831 13.689C23.8788 13.689 24.0604 13.7345 24.2281 13.8255C24.3958 13.9165 24.5496 14.0376 24.6896 14.189C25.7323 15.389 26.5114 16.6625 27.0271 18.0095C27.5431 19.3565 27.8011 20.7386 27.8011 22.156C27.8011 23.573 27.5431 24.955 27.0271 26.302C26.5114 27.6493 25.7324 28.923 24.6901 30.123C24.5591 30.2896 24.4094 30.4146 24.2411 30.498C24.0731 30.5813 23.8843 30.623 23.6746 30.623ZM30.8686 31.9065V31.0535C30.8686 29.1868 31.7949 27.9611 33.6476 27.3765C35.4999 26.7921 37.1413 26.5 38.5716 26.5C40.0023 26.5 41.6438 26.793 43.4961 27.379C45.3488 27.9646 46.2751 29.1895 46.2751 31.0535V31.9065H30.8686ZM38.5696 23.8215C37.4819 23.8215 36.5516 23.4335 35.7786 22.6575C35.0053 21.8811 34.6186 20.948 34.6186 19.858C34.6186 18.768 35.0059 17.8363 35.7806 17.063C36.5553 16.29 37.4864 15.9035 38.5741 15.9035C39.6618 15.9035 40.5921 16.2913 41.3651 17.067C42.1384 17.843 42.5251 18.7748 42.5251 19.8625C42.5251 20.9501 42.1378 21.882 41.3631 22.658C40.5884 23.4336 39.6573 23.8215 38.5696 23.8215Z" fill="#0D0904"/>
</svg>
