<svg width="48" height="48" viewBox="0 0 48 48" fill="none" xmlns="http://www.w3.org/2000/svg">
<path d="M13.4999 36.2869C13.0109 36.2869 12.6047 36.1252 12.2814 35.8019C11.9581 35.4789 11.7964 35.0727 11.7964 34.5834V13.4164C11.7964 12.9271 11.9581 12.5209 12.2814 12.1979C12.6047 11.8746 13.0109 11.7129 13.4999 11.7129C13.9889 11.7129 14.3951 11.8746 14.7184 12.1979C15.0417 12.5209 15.2034 12.9271 15.2034 13.4164V34.5834C15.2034 35.0727 15.0417 35.4789 14.7184 35.8019C14.3951 36.1252 13.9889 36.2869 13.4999 36.2869ZM27.2369 24.1499L35.5934 32.5064C35.9334 32.8464 36.0951 33.2442 36.0784 33.6999C36.0617 34.1556 35.8834 34.5534 35.5434 34.8934C35.2034 35.2334 34.7972 35.4034 34.3249 35.4034C33.8526 35.4034 33.4464 35.2334 33.1064 34.8934L23.5684 25.3554C23.3857 25.1727 23.2531 24.9821 23.1704 24.7834C23.0877 24.5851 23.0464 24.3739 23.0464 24.1499C23.0464 23.9259 23.0877 23.7147 23.1704 23.5164C23.2531 23.3177 23.3857 23.1271 23.5684 22.9444L33.1564 13.3564C33.4964 13.0164 33.9026 12.8464 34.3749 12.8464C34.8472 12.8464 35.2534 13.0164 35.5934 13.3564C35.9334 13.6964 36.1034 14.1026 36.1034 14.5749C36.1034 15.0472 35.9334 15.4534 35.5934 15.7934L27.2369 24.1499Z" fill="#0D0904"/>
</svg>
