<svg width="48" height="48" viewBox="0 0 48 48" fill="none" xmlns="http://www.w3.org/2000/svg">
<path d="M34.7262 35.2285L37.1652 37.7555C37.4642 38.0648 37.616 38.435 37.6207 38.866C37.625 39.2973 37.4418 39.6928 37.0712 40.0525C36.7322 40.3885 36.328 40.5565 35.8587 40.5565C35.3893 40.5565 34.9847 40.3865 34.6447 40.0465L29.4167 34.7805C29.0687 34.4315 28.8947 34.021 28.8947 33.549C28.8947 33.0773 29.0647 32.6675 29.4047 32.3195L34.6947 27.0535C35.0347 26.7215 35.4345 26.5595 35.8942 26.5675C36.3538 26.5755 36.7732 26.7733 37.1522 27.161C37.4435 27.4657 37.5975 27.8268 37.6142 28.2445C37.6308 28.6618 37.4812 29.0245 37.1652 29.3325L34.7262 31.8215L42.6077 31.8715C43.0653 31.8715 43.4637 32.0323 43.8027 32.354C44.1417 32.6753 44.3112 33.0793 44.3112 33.566C44.3112 34.0527 44.15 34.4597 43.8277 34.787C43.5053 35.1146 43.0987 35.2785 42.6077 35.2785L34.7262 35.2285ZM7.10767 40.4785C6.18767 40.4785 5.39001 40.1406 4.71467 39.465C4.03901 38.7893 3.70117 37.9915 3.70117 37.0715V30.1285C3.70117 29.2168 4.03901 28.4212 4.71467 27.7415C5.39001 27.0615 6.18767 26.7215 7.10767 26.7215H19.9717C20.8833 26.7215 21.679 27.0615 22.3587 27.7415C23.0387 28.4212 23.3787 29.2168 23.3787 30.1285V37.0715C23.3787 37.9915 23.0387 38.7893 22.3587 39.465C21.679 40.1406 20.8833 40.4785 19.9717 40.4785H7.10767ZM7.10767 37.0715H19.9717V30.1285H7.10767V37.0715ZM13.2742 16.0785H5.39267C4.90901 16.0785 4.50617 15.9138 4.18417 15.5845C3.86217 15.2555 3.70117 14.8488 3.70117 14.3645C3.70117 13.8798 3.86484 13.4765 4.19217 13.1545C4.51951 12.8325 4.92367 12.6715 5.40467 12.6715H13.2742L10.8352 10.1825C10.5362 9.87982 10.3843 9.51515 10.3797 9.08849C10.3753 8.66215 10.5553 8.26715 10.9197 7.90348C11.252 7.57148 11.6478 7.40348 12.1072 7.39948C12.5662 7.39548 12.9657 7.56348 13.3057 7.90348L18.5837 13.1695C18.9237 13.5102 19.0957 13.9102 19.0997 14.3695C19.1037 14.8288 18.9357 15.2285 18.5957 15.5685L13.3057 20.8965C12.9657 21.2365 12.5638 21.4025 12.1002 21.3945C11.6365 21.3865 11.2108 21.1887 10.8232 20.801C10.5405 20.5173 10.3908 20.1598 10.3742 19.7285C10.3575 19.2972 10.4945 18.9268 10.7852 18.6175L13.2742 16.0785ZM28.0402 21.29C27.1205 21.29 26.3228 20.9511 25.6472 20.2735C24.9715 19.5955 24.6337 18.7948 24.6337 17.8715V10.9285C24.6337 10.0052 24.9715 9.20449 25.6472 8.52649C26.3228 7.84882 27.1205 7.50998 28.0402 7.50998H40.8927C41.816 7.50998 42.6165 7.84882 43.2942 8.52649C43.9722 9.20449 44.3112 10.0052 44.3112 10.9285V17.8715C44.3112 18.7948 43.9722 19.5955 43.2942 20.2735C42.6165 20.9511 41.816 21.29 40.8927 21.29H28.0402ZM28.0402 17.8715H40.8927V10.9285H28.0402V17.8715Z" fill="white"/>
</svg>
