<svg width="48" height="48" viewBox="0 0 48 48" fill="none" xmlns="http://www.w3.org/2000/svg">
<path d="M9.10755 42.2994C8.18755 42.2994 7.38988 41.9616 6.71455 41.286C6.03888 40.6106 5.70105 39.813 5.70105 38.893V9.10795C5.70105 8.18462 6.03888 7.38412 6.71455 6.70645C7.38988 6.02845 8.18755 5.68945 9.10755 5.68945H38.8925C39.8159 5.68945 40.6164 6.02845 41.294 6.70645C41.972 7.38412 42.311 8.18462 42.311 9.10795V38.893C42.311 39.813 41.972 40.6106 41.294 41.286C40.6164 41.9616 39.8159 42.2994 38.8925 42.2994H9.10755ZM9.10755 38.893H38.8925V9.10795H9.10755V38.893ZM24.0001 28.9505L28.1466 31.469C28.4559 31.6676 28.7612 31.651 29.0626 31.419C29.3636 31.187 29.4767 30.8845 29.4021 30.5115L28.3001 25.8505L31.9585 22.656C32.2572 22.3986 32.3422 22.0981 32.2136 21.7545C32.0849 21.4105 31.834 21.2178 31.461 21.1765L26.6536 20.801L24.7956 16.3655C24.6486 16.0178 24.3839 15.844 24.0016 15.844C23.6196 15.844 23.3539 16.0178 23.2045 16.3655L21.3465 20.801L16.5391 21.1765C16.1661 21.2178 15.9152 21.4105 15.7866 21.7545C15.6579 22.0981 15.7429 22.3986 16.0415 22.656L19.7001 25.8505L18.6101 30.5115C18.5274 30.8808 18.6369 31.1823 18.9385 31.416C19.2406 31.65 19.5456 31.6676 19.8536 31.469L24.0001 28.9505Z" fill="white"/>
</svg>
