<svg width="48" height="48" viewBox="0 0 48 48" fill="none" xmlns="http://www.w3.org/2000/svg">
<path d="M16.6002 35.384C16.9908 35.384 17.3108 35.28 17.5602 35.072C17.8092 34.8643 17.9543 34.5945 17.9957 34.2625C18.0623 33.6958 18.1353 33.1565 18.2147 32.6445C18.294 32.1325 18.371 31.6765 18.4457 31.2765C18.5043 30.9511 18.5497 30.5928 18.5817 30.2015C18.6133 29.8101 18.6933 29.367 18.8217 28.872C19.6727 28.7133 20.5192 28.5776 21.3612 28.465C22.2032 28.3523 23.0242 28.242 23.8242 28.134C24.6668 28.042 25.4885 27.969 26.2892 27.915C27.0898 27.861 27.8697 27.8006 28.6287 27.734C28.7873 28.369 28.925 29.0238 29.0417 29.6985C29.1583 30.3731 29.3207 31.0476 29.5287 31.722C29.7873 32.457 30.079 33.0971 30.4037 33.6425C30.728 34.1878 31.1275 34.6476 31.6022 35.022C31.9182 35.2633 32.2508 35.4193 32.6002 35.49C32.9495 35.5606 33.2695 35.538 33.5602 35.422C33.9268 35.281 34.1347 35.0691 34.1837 34.7865C34.233 34.5038 34.137 34.0798 33.8957 33.5145C33.5877 32.8478 33.3337 32.2395 33.1337 31.6895C32.9337 31.1395 32.767 30.6315 32.6337 30.1655C32.5083 29.6888 32.3983 29.2431 32.3037 28.8285C32.2087 28.4135 32.114 27.9986 32.0197 27.584C32.186 27.575 32.3867 27.5645 32.6217 27.5525C32.8567 27.5401 33.0408 27.5213 33.1742 27.496C33.7568 27.4213 34.1893 27.2241 34.4717 26.9045C34.7543 26.5845 34.8957 26.2331 34.8957 25.8505C34.8957 25.4331 34.7313 25.0836 34.4027 24.802C34.0743 24.52 33.6208 24.375 33.0422 24.367H32.3812C32.0702 24.367 31.7543 24.3796 31.4337 24.405C31.359 23.7876 31.2812 23.1766 31.2002 22.572C31.1192 21.9673 31.0343 21.3521 30.9457 20.7265C30.8377 19.9771 30.7213 19.2906 30.5967 18.667C30.4723 18.0433 30.3395 17.44 30.1982 16.857C30.0315 16.2383 29.7997 15.6678 29.5027 15.1455C29.206 14.6235 28.8363 14.1625 28.3937 13.7625C27.9857 13.3718 27.5403 13.0728 27.0577 12.8655C26.575 12.6585 26.0725 12.555 25.5502 12.555C24.7835 12.555 24.1082 12.6823 23.5242 12.937C22.9402 13.1916 22.3727 13.603 21.8217 14.171C21.4567 14.5456 21.0848 14.9806 20.7062 15.476C20.3275 15.9713 19.9175 16.5523 19.4762 17.219C19.2842 16.935 19.0798 16.7283 18.8632 16.599C18.6465 16.4696 18.392 16.405 18.0997 16.405C17.8113 16.405 17.5753 16.488 17.3917 16.654C17.2083 16.8196 17.1167 17.0351 17.1167 17.3005C17.1167 18.2258 17.0563 19.1301 16.9357 20.0135C16.815 20.8968 16.6587 21.7845 16.4667 22.6765C16.3333 23.3018 16.1937 23.9271 16.0477 24.5525C15.9017 25.1778 15.744 25.803 15.5747 26.428C15.1597 26.462 14.8082 26.5 14.5202 26.542C14.2322 26.584 14.0008 26.655 13.8262 26.755C13.6188 26.863 13.457 27.0145 13.3407 27.2095C13.2247 27.4048 13.1667 27.6518 13.1667 27.9505C13.1667 28.2228 13.2 28.437 13.2667 28.593C13.3333 28.749 13.45 28.8761 13.6167 28.9745C13.7673 29.0825 13.9783 29.1595 14.2497 29.2055C14.5213 29.2511 14.8563 29.2606 15.2547 29.234C15.2547 29.7463 15.2233 30.2541 15.1607 30.7575C15.098 31.2608 15.0667 31.7571 15.0667 32.2465C15.0667 32.6918 15.071 33.0935 15.0797 33.4515C15.0883 33.8095 15.134 34.0965 15.2167 34.3125C15.3167 34.6951 15.4807 34.9695 15.7087 35.1355C15.9363 35.3011 16.2335 35.384 16.6002 35.384ZM19.7317 25.431C20.0157 24.3613 20.3272 23.3415 20.6662 22.3715C21.0048 21.4015 21.3807 20.496 21.7937 19.655C22.1697 18.86 22.6168 18.0245 23.1352 17.1485C23.6532 16.2721 24.3915 15.834 25.3502 15.834C25.9008 15.834 26.3515 16.1296 26.7022 16.721C27.0532 17.3123 27.3247 18.1595 27.5167 19.2625C27.642 20.0465 27.7297 20.9201 27.7797 21.8835C27.8297 22.8471 27.9047 23.7246 28.0047 24.516C27.3283 24.5833 26.6548 24.6391 25.9842 24.6835C25.3132 24.7278 24.6218 24.785 23.9102 24.855C23.2178 24.9136 22.5277 24.993 21.8397 25.093C21.1517 25.193 20.449 25.3056 19.7317 25.431ZM7.10767 44.2994C6.18767 44.2994 5.39001 43.9616 4.71467 43.286C4.03901 42.6106 3.70117 41.813 3.70117 40.893V7.10795C3.70117 6.18462 4.03901 5.38412 4.71467 4.70645C5.39001 4.02845 6.18767 3.68945 7.10767 3.68945H40.8927C41.816 3.68945 42.6165 4.02845 43.2942 4.70645C43.9722 5.38412 44.3112 6.18462 44.3112 7.10795V40.893C44.3112 41.813 43.9722 42.6106 43.2942 43.286C42.6165 43.9616 41.816 44.2994 40.8927 44.2994H7.10767ZM7.10767 40.893H40.8927V7.10795H7.10767V40.893Z" fill="white"/>
</svg>
