<svg width="48" height="48" viewBox="0 0 48 48" fill="none" xmlns="http://www.w3.org/2000/svg">
<path d="M10.0112 21.562L4.55867 18.474C4.29401 18.3343 4.08484 18.1328 3.93117 17.8695C3.77784 17.6065 3.70117 17.3188 3.70117 17.0065V10.7545C3.70117 10.4421 3.77784 10.1545 3.93117 9.89146C4.08484 9.62813 4.29401 9.42663 4.55867 9.28696L10.0112 6.21096C10.2655 6.06163 10.5447 5.98696 10.8487 5.98696C11.1527 5.98696 11.4372 6.06163 11.7022 6.21096L17.1667 9.28696C17.4233 9.42663 17.6305 9.62813 17.7882 9.89146C17.9455 10.1545 18.0242 10.4421 18.0242 10.7545V17.0065C18.0242 17.3188 17.9455 17.6065 17.7882 17.8695C17.6305 18.1328 17.4233 18.3343 17.1667 18.474L11.7022 21.562C11.4478 21.7113 11.1687 21.786 10.8647 21.786C10.5607 21.786 10.2762 21.7113 10.0112 21.562ZM10.8567 18.239L14.7012 16.035V11.726L10.8567 9.52146L7.02417 11.726V16.035L10.8567 18.239ZM32.8112 22.4945V18.674L38.6077 22.0545C39.1467 22.3731 39.5653 22.7883 39.8637 23.3C40.162 23.8116 40.3112 24.366 40.3112 24.963V35.276C40.3112 35.8653 40.162 36.4176 39.8637 36.933C39.5653 37.4486 39.1467 37.862 38.6077 38.173L29.8587 43.2915C29.3173 43.5978 28.743 43.751 28.1357 43.751C27.528 43.751 26.959 43.5978 26.4287 43.2915L17.6797 38.173C17.1407 37.862 16.724 37.4486 16.4297 36.933C16.1353 36.4176 15.9882 35.8653 15.9882 35.276V24.963C15.9882 24.366 16.1353 23.8116 16.4297 23.3C16.724 22.7883 17.1407 22.3731 17.6797 22.0545L23.4882 18.674V22.4945L19.3112 24.9535V35.3115L28.1437 40.4285L36.9882 35.3115V24.9535L32.8112 22.4945ZM29.8112 15.012V25.3565C29.8112 25.8215 29.6487 26.2136 29.3237 26.533C28.9983 26.8523 28.602 27.012 28.1347 27.012C27.6673 27.012 27.2762 26.8523 26.9612 26.533C26.6458 26.2136 26.4882 25.8215 26.4882 25.3565V5.40446C26.4882 4.92346 26.6518 4.5173 26.9792 4.18596C27.3065 3.85463 27.7107 3.68896 28.1917 3.68896H41.1787C41.8417 3.68896 42.3388 3.99346 42.6702 4.60246C43.0018 5.2118 42.977 5.7983 42.5957 6.36196L41.2252 8.38696C41.0345 8.67363 40.9392 8.9938 40.9392 9.34746C40.9392 9.70146 41.0345 10.0276 41.2252 10.326L42.5957 12.339C42.977 12.9106 43.0018 13.4991 42.6702 14.1045C42.3388 14.7095 41.8417 15.012 41.1787 15.012H29.8112Z" fill="white"/>
</svg>
