<svg width="48" height="48" viewBox="0 0 48 48" fill="none" xmlns="http://www.w3.org/2000/svg">
<path d="M17.7124 32.5715C16.3518 32.5715 15.2048 32.1018 14.2714 31.1625C13.3381 30.2231 12.8714 29.0731 12.8714 27.7125C12.8714 26.3518 13.3413 25.2048 14.2809 24.2715C15.2203 23.3381 16.3703 22.8715 17.7309 22.8715C19.0913 22.8715 20.2381 23.3413 21.1714 24.281C22.1048 25.2203 22.5714 26.3703 22.5714 27.731C22.5714 29.0913 22.1018 30.2381 21.1624 31.1715C20.2231 32.1048 19.0731 32.5715 17.7124 32.5715ZM9.10743 44.299C8.18743 44.299 7.38976 43.9611 6.71443 43.2855C6.03876 42.6101 5.70093 41.8125 5.70093 40.8925V10.1075C5.70093 9.18413 6.03876 8.38363 6.71443 7.70596C7.38976 7.02796 8.18743 6.68896 9.10743 6.68896H12.2499V5.39646C12.2499 4.91813 12.4159 4.51396 12.7479 4.18396C13.0803 3.85396 13.4843 3.68896 13.9599 3.68896C14.4496 3.68896 14.8626 3.85396 15.1989 4.18396C15.5353 4.51396 15.7034 4.91813 15.7034 5.39646V6.68896H32.2964V5.39646C32.2964 4.91813 32.4626 4.51396 32.7949 4.18396C33.1269 3.85396 33.5308 3.68896 34.0064 3.68896C34.4964 3.68896 34.9094 3.85396 35.2454 4.18396C35.5818 4.51396 35.7499 4.91813 35.7499 5.39646V6.68896H38.8924C39.8158 6.68896 40.6163 7.02796 41.2939 7.70596C41.9719 8.38363 42.3109 9.18413 42.3109 10.1075V40.8925C42.3109 41.8125 41.9719 42.6101 41.2939 43.2855C40.6163 43.9611 39.8158 44.299 38.8924 44.299H9.10743ZM9.10743 40.8925H38.8924V19.5H9.10743V40.8925ZM9.10743 16.5H38.8924V10.1075H9.10743V16.5Z" fill="#0D0904"/>
</svg>
