<svg width="42" height="32" viewBox="0 0 42 32" fill="none" xmlns="http://www.w3.org/2000/svg">
<path d="M39.4685 17.2699H34.8265C34.3575 17.2699 33.9662 17.1129 33.6525 16.7989C33.3385 16.4853 33.1815 16.0963 33.1815 15.6319C33.1815 15.1679 33.339 14.7811 33.654 14.4714C33.969 14.1618 34.3593 14.0069 34.825 14.0069H39.4685C39.9308 14.0069 40.3183 14.1639 40.631 14.4779C40.9437 14.7916 41.1 15.1806 41.1 15.6449C41.1 16.1089 40.9437 16.4958 40.631 16.8054C40.3183 17.1151 39.9308 17.2699 39.4685 17.2699ZM30.5705 25.8554C30.8592 25.4978 31.2205 25.2836 31.6545 25.2129C32.0885 25.1423 32.4898 25.2483 32.8585 25.5309L36.6165 28.3144C36.9735 28.5971 37.1893 28.9554 37.264 29.3894C37.3387 29.8234 37.2327 30.2269 36.946 30.5999C36.6597 30.9613 36.2993 31.1791 35.865 31.2534C35.431 31.3281 35.0245 31.2189 34.6455 30.9259L30.8915 28.1459C30.5342 27.8633 30.3182 27.5033 30.2435 27.0659C30.1688 26.6283 30.2778 26.2248 30.5705 25.8554ZM36.6165 2.96242L33.0085 5.69593C32.6398 5.97859 32.2385 6.08459 31.8045 6.01392C31.3705 5.94326 31.0092 5.72909 30.7205 5.37142C30.4278 5.01342 30.3175 4.61292 30.3895 4.16992C30.4615 3.72692 30.6788 3.36392 31.0415 3.08092L34.661 0.334924C35.0297 0.0525906 35.431 -0.0512417 35.865 0.0234249C36.2993 0.0977583 36.6577 0.311592 36.94 0.664926C37.2307 1.03426 37.3387 1.43876 37.264 1.87842C37.1893 2.31842 36.9735 2.67976 36.6165 2.96242ZM6.5 21.9374H3.275C2.36233 21.9054 1.58833 21.5576 0.953 20.8939C0.317667 20.2303 0 19.4426 0 18.5309V12.7459C0 11.8059 0.334667 11.0013 1.004 10.3319C1.67367 9.66226 2.4785 9.32743 3.4185 9.32743H12.215L20.049 4.64192C20.6207 4.30192 21.1903 4.29759 21.758 4.62892C22.326 4.96059 22.61 5.45392 22.61 6.10892V25.1679C22.61 25.8229 22.326 26.3163 21.758 26.6479C21.1903 26.9793 20.6207 26.9749 20.049 26.6349L12.215 21.9374H9.9665V28.2099C9.9665 28.6989 9.8 29.1091 9.467 29.4404C9.13367 29.7718 8.7215 29.9374 8.2305 29.9374C7.73917 29.9374 7.32783 29.7718 6.9965 29.4404C6.6655 29.1091 6.5 28.6989 6.5 28.2099V21.9374ZM19.1915 22.1589V9.11793L13.099 12.7459H3.4185V18.5309H13.099L19.1915 22.1589ZM24.61 22.6374V8.62743C25.5977 9.45143 26.3903 10.4683 26.988 11.6779C27.586 12.8879 27.885 14.2081 27.885 15.6384C27.885 17.0688 27.5868 18.3884 26.9905 19.5974C26.3942 20.8064 25.6007 21.8198 24.61 22.6374Z" fill="#0D0904"/>
</svg>
